<svg xmlns="http://www.w3.org/2000/svg" version="1.1" xmlns:xlink="http://www.w3.org/1999/xlink" xmlns:svgjs="http://svgjs.dev/svgjs" width="1000" height="1000" viewBox="0 0 1000 1000"><rect width="1000" height="1000" fill="#df5b56"></rect><g transform="matrix(0.7,0,0,0.7,149.57575757575756,282.1265587044535)"><svg viewBox="0 0 396 247" data-background-color="#df5b56" preserveAspectRatio="xMidYMid meet" height="623" width="1000" xmlns="http://www.w3.org/2000/svg" xmlns:xlink="http://www.w3.org/1999/xlink"><g id="tight-bounds" transform="matrix(1,0,0,1,0.2400000000000091,-0.09999999999999432)"><svg viewBox="0 0 395.52 247.2" height="247.2" width="395.52"><g><svg></svg></g><g><svg viewBox="0 0 395.52 247.2" height="247.2" width="395.52"><g transform="matrix(1,0,0,1,75.54432,107.50169806451612)"><svg viewBox="0 0 244.43135999999998 32.196603870967735" height="32.196603870967735" width="244.43135999999998"><g><svg viewBox="0 0 244.43135999999998 32.196603870967735" height="32.196603870967735" width="244.43135999999998"><g><svg viewBox="0 0 244.43135999999998 32.196603870967735" height="32.196603870967735" width="244.43135999999998"><g><svg viewBox="0 0 244.43135999999998 32.196603870967735" height="32.196603870967735" width="244.43135999999998"><g><svg viewBox="0 0 244.43135999999998 32.196603870967735" height="32.196603870967735" width="244.43135999999998"><g><svg viewBox="0 0 244.43135999999998 32.196603870967735" height="32.196603870967735" width="244.43135999999998"><g transform="matrix(1,0,0,1,0,0)"><svg width="244.43135999999998" viewBox="1.9500000476837158 -36.150001525878906 278.9700012207031 36.75" height="32.196603870967735" data-palette-color="#ffffff"><path d="M15.5 0.6Q8.85 0.6 5.4-3.83 1.95-8.25 1.95-17.15L1.95-17.15Q1.95-26.05 5.4-30.48 8.85-34.9 15.5-34.9L15.5-34.9Q21-34.9 24.35-31.58 27.7-28.25 27.7-21.8L27.7-21.8 22.55-21.8Q22.55-26 20.65-28.2 18.75-30.4 15.5-30.4L15.5-30.4Q7.2-30.4 7.2-18.4L7.2-18.4 7.2-15.9Q7.2-3.9 15.6-3.9L15.6-3.9Q18.9-3.9 20.83-6.08 22.75-8.25 22.75-12.45L22.75-12.45 27.7-12.45Q27.7-6 24.38-2.7 21.05 0.6 15.5 0.6L15.5 0.6ZM32.5 0L32.5-36.15 37.2-36.15 37.2-23.55 37.5-23.55Q39.55-26.9 43.55-26.9L43.55-26.9Q50.2-26.9 50.2-18.8L50.2-18.8 50.2 0 45.5 0 45.5-18.05Q45.5-20.6 44.57-21.65 43.65-22.7 41.85-22.7L41.85-22.7Q39.9-22.7 38.55-20.88 37.2-19.05 37.2-16.1L37.2-16.1 37.2 0 32.5 0ZM61.3 0.6Q58.7 0.6 56.59-1.03 54.49-2.65 54.49-6.8L54.49-6.8Q54.49-11.85 57.92-13.8 61.34-15.75 67.69-15.75L67.69-15.75 67.69-18.9Q67.69-20.8 66.89-21.83 66.09-22.85 63.99-22.85L63.99-22.85Q61.99-22.85 61.12-21.78 60.24-20.7 60.24-19.15L60.24-19.15 60.24-18.5 55.59-18.5Q55.55-18.8 55.55-19.6L55.55-19.6Q55.55-23.05 57.89-24.98 60.24-26.9 64.14-26.9L64.14-26.9Q68.25-26.9 70.32-24.95 72.39-23 72.39-19.4L72.39-19.4 72.39-5.25Q72.39-4.4 72.8-3.95 73.19-3.5 73.8-3.5L73.8-3.5 75.3-3.5 75.3-0.2Q74.19 0.45 72.34 0.45L72.34 0.45Q70.69 0.45 69.55-0.43 68.39-1.3 68-2.85L68-2.85 67.75-2.85Q65.5 0.6 61.3 0.6L61.3 0.6ZM62.74-3.5Q64.8-3.5 66.25-5.2 67.69-6.9 67.69-9.75L67.69-9.75 67.69-11.85Q63.7-11.85 61.52-10.85 59.34-9.85 59.34-7.15L59.34-7.15Q59.34-5.2 60.17-4.35 60.99-3.5 62.74-3.5L62.74-3.5ZM78.79 0L78.79-26.3 82.49-26.3 83.09-22.7 83.39-22.7Q84.79-26.9 87.89-26.9L87.89-26.9Q89.09-26.9 89.99-26.5L89.99-26.5 89.99-21.75 88.39-21.75Q86.24-21.75 84.87-20.3 83.49-18.85 83.49-15.6L83.49-15.6 83.49 0 78.79 0ZM92.84 0L92.84-36.15 97.54-36.15 97.54 0 92.84 0ZM103.49 0L103.49-26.3 108.19-26.3 108.19 0 103.49 0ZM103.39-31.1L103.39-36.15 108.19-36.15 108.19-31.1 103.39-31.1ZM123.54 0.6Q118.49 0.6 115.99-2.7 113.49-6 113.49-13.15L113.49-13.15Q113.49-20.2 115.96-23.55 118.44-26.9 123.44-26.9L123.44-26.9Q127.94-26.9 130.14-23.83 132.34-20.75 132.34-14.1L132.34-14.1 132.34-11.85 118.39-11.85Q118.44-7.55 119.66-5.5 120.89-3.45 123.59-3.45L123.59-3.45Q125.44-3.45 126.56-4.95 127.69-6.45 127.69-9.05L127.69-9.05 132.34-9.05Q132.34-4.55 129.91-1.98 127.49 0.6 123.54 0.6L123.54 0.6ZM118.44-15.75L127.44-15.75Q127.44-19.2 126.44-21.03 125.44-22.85 123.44-22.85L123.44-22.85Q121.04-22.85 119.86-21.1 118.69-19.35 118.44-15.75L118.44-15.75ZM148.88 0L148.88-34.3 162.43-34.3Q165.03-34.3 167.08-33.25 169.13-32.2 170.31-30.28 171.48-28.35 171.48-25.85L171.48-25.85Q171.48-23 170.01-20.9 168.53-18.8 166.23-18L166.23-18 166.23-17.8Q168.88-17 170.58-14.68 172.28-12.35 172.28-9.15L172.28-9.15Q172.28-6.35 170.96-4.28 169.63-2.2 167.38-1.1 165.13 0 162.43 0L162.43 0 148.88 0ZM153.93-19.8L161.03-19.8Q163.38-19.8 164.81-21.28 166.23-22.75 166.23-24.85L166.23-24.85Q166.23-27.25 164.93-28.5 163.63-29.75 161.33-29.75L161.33-29.75 153.93-29.75 153.93-19.8ZM153.93-4.55L161.73-4.55Q164.08-4.55 165.56-5.93 167.03-7.3 167.03-9.8L167.03-9.8Q167.03-12.1 165.51-13.7 163.98-15.3 161.43-15.3L161.43-15.3 153.93-15.3 153.93-4.55ZM176.33 0L176.33-36.15 181.03-36.15 181.03 0 176.33 0ZM195.63 0.6Q190.58 0.6 188.08-2.7 185.58-6 185.58-13.15L185.58-13.15Q185.58-20.2 188.05-23.55 190.53-26.9 195.53-26.9L195.53-26.9Q200.03-26.9 202.23-23.83 204.43-20.75 204.43-14.1L204.43-14.1 204.43-11.85 190.48-11.85Q190.53-7.55 191.75-5.5 192.98-3.45 195.68-3.45L195.68-3.45Q197.53-3.45 198.65-4.95 199.78-6.45 199.78-9.05L199.78-9.05 204.43-9.05Q204.43-4.55 202-1.98 199.58 0.6 195.63 0.6L195.63 0.6ZM190.53-15.75L199.53-15.75Q199.53-19.2 198.53-21.03 197.53-22.85 195.53-22.85L195.53-22.85Q193.13-22.85 191.95-21.1 190.78-19.35 190.53-15.75L190.53-15.75ZM209.77 0L209.77-26.3 214.47-26.3 214.47 0 209.77 0ZM209.67-31.1L209.67-36.15 214.47-36.15 214.47-31.1 209.67-31.1ZM228.27 0.6Q223.97 0.6 221.72-1.65 219.47-3.9 219.47-7.3L219.47-7.3Q219.47-7.85 219.5-8.03 219.52-8.2 219.52-8.25L219.52-8.25 224.37-8.25 224.37-7.8Q224.42-5.55 225.55-4.48 226.67-3.4 228.47-3.4L228.47-3.4Q230.07-3.4 231.17-4.33 232.27-5.25 232.27-7L232.27-7Q232.27-8.3 231.6-9.13 230.92-9.95 229.92-10.43 228.92-10.9 227.17-11.5L227.17-11.5Q224.87-12.25 223.45-12.98 222.02-13.7 221.02-15.23 220.02-16.75 220.02-19.25L220.02-19.25Q220.02-22.85 222.37-24.88 224.72-26.9 228.57-26.9L228.57-26.9Q232.22-26.9 234.4-24.88 236.57-22.85 236.57-19.7L236.57-19.7 236.52-18.7 231.67-18.7 231.67-19.05Q231.67-20.75 230.85-21.83 230.02-22.9 228.27-22.9L228.27-22.9Q226.47-22.9 225.65-21.9 224.82-20.9 224.82-19.6L224.82-19.6Q224.82-18 226-17.23 227.17-16.45 229.62-15.7L229.62-15.7Q232.02-14.95 233.5-14.2 234.97-13.45 236.05-11.88 237.12-10.3 237.12-7.65L237.12-7.65Q237.12-3.45 234.72-1.43 232.32 0.6 228.27 0.6L228.27 0.6ZM250.27 0.6Q245.42 0.6 243.19-2.73 240.97-6.05 240.97-13.15L240.97-13.15Q240.97-20.2 243.22-23.55 245.47-26.9 250.17-26.9L250.17-26.9Q258.62-26.9 258.62-16.5L258.62-16.5 253.77-16.5Q253.77-19.8 252.97-21.3 252.17-22.8 250.17-22.8L250.17-22.8Q247.97-22.8 246.92-20.63 245.87-18.45 245.87-14.1L245.87-14.1 245.87-12.2Q245.87-7.8 246.92-5.65 247.97-3.5 250.27-3.5L250.27-3.5Q252.22-3.5 253.09-5.08 253.97-6.65 253.97-9.8L253.97-9.8 258.62-9.8Q258.62-5.05 256.52-2.23 254.42 0.6 250.27 0.6L250.27 0.6ZM263.22 0L263.22-36.15 267.92-36.15 267.92-23.55 268.22-23.55Q270.27-26.9 274.27-26.9L274.27-26.9Q280.92-26.9 280.92-18.8L280.92-18.8 280.92 0 276.22 0 276.22-18.05Q276.22-20.6 275.29-21.65 274.37-22.7 272.57-22.7L272.57-22.7Q270.62-22.7 269.27-20.88 267.92-19.05 267.92-16.1L267.92-16.1 267.92 0 263.22 0Z" opacity="1" transform="matrix(1,0,0,1,0,0)" fill="#ffffff" class="undefined-text-0" data-fill-palette-color="primary" id="text-0"></path></svg></g></svg></g></svg></g></svg></g></svg></g></svg></g></svg></g><path d="M218.032 101.502L218.032 37.764 389.703 37.764 389.703 209.436 218.032 209.436 218.032 145.698 220.935 145.698 220.935 206.532 386.799 206.532 386.799 40.668 220.935 40.668 220.935 101.502Z" fill="#ffffff" stroke="transparent" data-fill-palette-color="primary"></path></svg></g><defs></defs></svg><rect width="395.52" height="247.2" fill="none" stroke="none" visibility="hidden"></rect></g></svg></g></svg>